<svg width="88" height="32" viewBox="0 0 88 32" fill="none" xmlns="http://www.w3.org/2000/svg">
<rect opacity="0.1" width="88" height="32" rx="16" fill="#36B37E"/>
<path d="M23.3828 18.2861C23.3828 19.1748 23.0615 19.8721 22.4189 20.3779C21.7764 20.8838 20.89 21.1367 19.7598 21.1367C18.6296 21.1367 17.7044 20.9613 16.9844 20.6104V19.0654C17.4401 19.2796 17.9232 19.4482 18.4336 19.5713C18.9486 19.6943 19.4271 19.7559 19.8691 19.7559C20.5163 19.7559 20.9925 19.6328 21.2979 19.3867C21.6077 19.1406 21.7627 18.8102 21.7627 18.3955C21.7627 18.0218 21.6214 17.7051 21.3389 17.4453C21.0563 17.1855 20.473 16.8779 19.5889 16.5225C18.6774 16.1533 18.0348 15.7318 17.6611 15.2578C17.2874 14.7839 17.1006 14.2142 17.1006 13.5488C17.1006 12.7148 17.3968 12.0586 17.9893 11.5801C18.5817 11.1016 19.377 10.8623 20.375 10.8623C21.332 10.8623 22.2845 11.0719 23.2324 11.4912L22.7129 12.8242C21.8242 12.4505 21.0312 12.2637 20.334 12.2637C19.8053 12.2637 19.4043 12.3799 19.1309 12.6123C18.8574 12.8402 18.7207 13.1432 18.7207 13.5215C18.7207 13.7812 18.7754 14.0046 18.8848 14.1914C18.9941 14.3737 19.1742 14.5469 19.4248 14.7109C19.6755 14.875 20.1266 15.0915 20.7783 15.3604C21.512 15.6657 22.0498 15.9505 22.3916 16.2148C22.7334 16.4792 22.984 16.7777 23.1436 17.1104C23.3031 17.443 23.3828 17.835 23.3828 18.2861ZM28.7695 21H27.1357V12.4072H24.1963V11.0059H31.709V12.4072H28.7695V21ZM42.1201 15.9893C42.1201 17.6162 41.7122 18.8809 40.8965 19.7832C40.0853 20.6855 38.9346 21.1367 37.4443 21.1367C35.9359 21.1367 34.776 20.6901 33.9648 19.7969C33.1582 18.8991 32.7549 17.6253 32.7549 15.9756C32.7549 14.3258 33.1605 13.0589 33.9717 12.1748C34.7874 11.2907 35.9495 10.8486 37.458 10.8486C38.9437 10.8486 40.0921 11.2975 40.9033 12.1953C41.7145 13.0931 42.1201 14.3577 42.1201 15.9893ZM34.4912 15.9893C34.4912 17.2197 34.7396 18.154 35.2363 18.792C35.7331 19.4255 36.4691 19.7422 37.4443 19.7422C38.415 19.7422 39.1465 19.4277 39.6387 18.7988C40.1354 18.1699 40.3838 17.2334 40.3838 15.9893C40.3838 14.7633 40.1377 13.8337 39.6455 13.2002C39.1579 12.5667 38.4287 12.25 37.458 12.25C36.4782 12.25 35.7376 12.5667 35.2363 13.2002C34.7396 13.8337 34.4912 14.7633 34.4912 15.9893ZM45.9004 15.6543H47.0352C47.7962 15.6543 48.3477 15.513 48.6895 15.2305C49.0312 14.9479 49.2021 14.5286 49.2021 13.9727C49.2021 13.4076 49.0176 13.002 48.6484 12.7559C48.2793 12.5098 47.7233 12.3867 46.9805 12.3867H45.9004V15.6543ZM45.9004 17.0078V21H44.2666V11.0059H47.0898C48.3796 11.0059 49.3343 11.2474 49.9541 11.7305C50.5739 12.2135 50.8838 12.9427 50.8838 13.918C50.8838 15.1621 50.2367 16.0485 48.9424 16.5771L51.7656 21H49.9062L47.5137 17.0078H45.9004ZM53.2217 21V11.0059H54.8555V21H53.2217ZM63.1543 21H57.501V11.0059H63.1543V12.3867H59.1348V15.1074H62.9014V16.4746H59.1348V19.6123H63.1543V21ZM71.084 18.2861C71.084 19.1748 70.7627 19.8721 70.1201 20.3779C69.4775 20.8838 68.5911 21.1367 67.4609 21.1367C66.3307 21.1367 65.4056 20.9613 64.6855 20.6104V19.0654C65.1413 19.2796 65.6243 19.4482 66.1348 19.5713C66.6497 19.6943 67.1283 19.7559 67.5703 19.7559C68.2174 19.7559 68.6937 19.6328 68.999 19.3867C69.3089 19.1406 69.4639 18.8102 69.4639 18.3955C69.4639 18.0218 69.3226 17.7051 69.04 17.4453C68.7575 17.1855 68.1742 16.8779 67.29 16.5225C66.3786 16.1533 65.736 15.7318 65.3623 15.2578C64.9886 14.7839 64.8018 14.2142 64.8018 13.5488C64.8018 12.7148 65.098 12.0586 65.6904 11.5801C66.2829 11.1016 67.0781 10.8623 68.0762 10.8623C69.0332 10.8623 69.9857 11.0719 70.9336 11.4912L70.4141 12.8242C69.5254 12.4505 68.7324 12.2637 68.0352 12.2637C67.5065 12.2637 67.1055 12.3799 66.832 12.6123C66.5586 12.8402 66.4219 13.1432 66.4219 13.5215C66.4219 13.7812 66.4766 14.0046 66.5859 14.1914C66.6953 14.3737 66.8753 14.5469 67.126 14.7109C67.3766 14.875 67.8278 15.0915 68.4795 15.3604C69.2132 15.6657 69.751 15.9505 70.0928 16.2148C70.4346 16.4792 70.6852 16.7777 70.8447 17.1104C71.0042 17.443 71.084 17.835 71.084 18.2861Z" fill="#36B37E"/>
</svg>
